<?xml version="1.0" encoding="utf-8"?>
<!-- Generator: Adobe Illustrator 23.0.3, SVG Export Plug-In . SVG Version: 6.00 Build 0)  -->
<svg version="1.1" id="logosvg.com" xmlns="http://www.w3.org/2000/svg" xmlns:xlink="http://www.w3.org/1999/xlink" x="0px"
	 y="0px" viewBox="0 0 400 300" style="enable-background:new 0 0 400 300;" xml:space="preserve">
<style type="text/css">
	.st0{fill:#FFFFFF;}
	.st1{fill:#FF0000;}
</style>
<polygon id="white" class="st0" points="41.6,138.4 64.8,138.4 29,174.3 46.9,174.3 57,164.2 66.9,174.3 82.6,174.3 82.6,161.6 
	73.7,161.6 66.6,154.6 82.6,138.6 82.6,125.7 28.9,125.7 28.9,168.1 41.6,155.4 "/>
<path id="text" d="M157.6,157.3v-24.1H120v33.6h9.6v-9.5h6.1l8.9,9.5h13.2l-8.9-9.5H157.6z M148,147.9L148,147.9h-18.4v-5.2H148
	V147.9z M202.9,133.2h9.5v33.6h-9.5V133.2z M298.9,166.8h37.6v-33.6h-37.6V166.8z M307.9,142.6h19.7h0v14.7h0h-19.7V142.6z
	 M216.2,133.2h37.5v33.6h-8.9v-24.2h-19.6v24.2h-8.9V133.2z M161.4,166.8h9.6v-9.5h18.4v9.5h9.6v-33.6h-37.6V166.8z M171.1,142.6
	L171.1,142.6h18.4h0v5.2h0h-18.4h0V142.6z M267.1,123.3h-9.6v43.5h37.6v-33.6h-28V123.3z M286.2,142.6L286.2,142.6L286.2,142.6
	l0,14.7h-19.7v0v-14.7H286.2z M392.5,133.2v33.6h-52.1v-33.6h9.5v24.2h11.9v-24.2h9.5v24.2H383v-24.2H392.5z"/>
<path id="red" class="st1" d="M95.3,101.8H16.1c-4.8,0-8.6,3.9-8.6,8.6v79.2c0,4.8,3.9,8.6,8.6,8.6h79.2c4.8,0,8.6-3.8,8.6-8.6
	c0,0,0,0,0,0v-79.2C103.9,105.6,100.1,101.8,95.3,101.8C95.3,101.8,95.3,101.8,95.3,101.8z M82.6,138.6l-15.9,15.9l7.1,7h8.8v12.7
	H66.9L57,164.2l-10.1,10.1H29l35.9-35.8H41.6v17l-12.7,12.7v-42.3h53.6V138.6z"/>
<path id="tm" d="M105.5,193.6h3.7v0.7h-1.4v3.8h-0.8v-3.8h-1.4V193.6z M113.3,193.6l-1.2,3.5h0l-1.2-3.5h-1.1v4.5h0.8v-3.5h0
	l1.3,3.5h0.7l1.3-3.5h0v3.5h0.8v-4.5H113.3z"/>
</svg>
